<?xml version="1.0" encoding="UTF-8"?> <svg xmlns="http://www.w3.org/2000/svg" width="165" height="48" viewBox="0 0 165 48" fill="none"><path d="M18.963 29.2053L30.6413 22.4743C30.8726 22.3017 31.1038 22.1867 31.3351 22.0141L25.9584 18.9075L14.2801 12.1766C11.0425 10.3357 7.05342 12.6369 7.05342 16.3187L7.05334 29.7805V36.0512C7.11116 35.9937 7.22679 35.9937 7.28461 35.9361L18.963 29.2053Z" fill="#1351EE"></path><path d="M6.99541 16.2624C6.99541 12.5805 11.0423 10.2218 14.2221 12.1203L25.9004 18.8512L31.2771 21.9578C33.7631 19.8867 33.5896 15.8022 30.5833 14.1338L18.9629 7.34535L7.22667 0.671942C4.04692 -1.22654 0 1.1322 0 4.81402V18.2758V31.7376C0 35.362 3.81573 37.6056 6.99541 36.0523V29.7242V16.2624Z" fill="#1351EE"></path><path d="M37.6945 25.5821L31.3928 21.9577C31.1615 22.1303 30.9303 22.3029 30.699 22.418L18.963 29.1489L7.22675 35.8798C7.16893 35.9373 7.0533 35.9948 6.99548 35.9948V43.186C6.99548 46.8679 11.0424 49.2265 14.2222 47.328L25.9584 40.6547L37.6367 33.9238C40.8742 32.0829 40.8742 27.423 37.6945 25.5821Z" fill="#00B2FF"></path><path d="M18.963 29.1489L30.6413 22.418C30.8726 22.2454 31.1038 22.1303 31.3351 21.9577L25.9584 18.8512L14.2801 12.1203C11.0425 10.2793 7.05342 12.5805 7.05342 16.2624L7.05334 29.7242V35.9949C7.11116 35.9373 7.22679 35.9373 7.28461 35.8798L18.963 29.1489Z" fill="#007AFF"></path><path d="M52.6682 23.6548H51.3385V20.9509H52.6682V18.8223C52.6682 17.9019 52.8417 17.0964 53.1307 16.4637C53.4198 15.8308 53.8823 15.3131 54.4604 15.0254C55.0386 14.6802 55.7323 14.5652 56.5418 14.5652C57.2356 14.5652 57.8136 14.6802 58.3918 14.8528C58.97 15.0254 59.3746 15.2556 59.7215 15.4857L59.0855 18.0745C58.3339 17.7293 57.7558 17.5567 57.2355 17.5567C56.4261 17.5567 56.0214 18.132 56.0214 19.225V21.066H58.7386V23.6548H56.0214V33.1471H52.726V23.6548H52.6682Z" fill="white"></path><path d="M68.1044 20.7783V24.3452C67.7575 24.3452 67.4684 24.2876 67.2372 24.2876C66.2544 24.2876 65.5028 24.5753 64.9247 25.2081C64.3466 25.7834 64.1154 26.5888 64.1154 27.5092V33.2046L60.8198 33.2046V20.9509H64.1152V22.7343H64.173C64.6356 22.1015 65.2136 21.5838 65.8496 21.2386C66.4856 20.8934 67.1793 20.7208 67.8731 20.7208C67.9888 20.7208 68.0466 20.7208 68.1044 20.7783Z" fill="white"></path><path d="M81.2858 28.142H72.6716C72.8451 28.89 73.2498 29.4652 73.7701 29.8679C74.3482 30.2706 74.9841 30.5008 75.7936 30.5008C77.0076 30.5008 77.9327 30.0405 78.7421 29.1201L80.8812 31.0761C80.303 31.7665 79.6093 32.3417 78.6842 32.7445C77.7593 33.1472 76.7186 33.3773 75.5623 33.3773C74.3482 33.3773 73.3075 33.1472 72.3247 32.6294C71.3419 32.1116 70.5903 31.3638 70.07 30.3857C69.4918 29.4077 69.2606 28.3146 69.2606 27.049C69.2606 26.1286 69.4341 25.2656 69.7231 24.5178C70.0122 23.7124 70.4748 23.0795 70.995 22.5042C71.5154 21.9289 72.1513 21.5262 72.9029 21.2386C73.6545 20.9509 74.4639 20.7783 75.331 20.7783C76.5451 20.7783 77.5858 21.066 78.5108 21.5837C79.4358 22.1015 80.1296 22.8493 80.6499 23.7698C81.1703 24.6903 81.4015 25.7834 81.4015 26.9915C81.4015 27.5092 81.3436 27.9119 81.2858 28.142ZM73.7123 24.1726C73.2497 24.5177 72.9029 25.093 72.6716 25.7834H78.1061C77.9326 25.093 77.6435 24.5753 77.1811 24.2301C76.7186 23.8274 76.1405 23.6548 75.4467 23.6548C74.7529 23.5972 74.1748 23.8274 73.7123 24.1726Z" fill="white"></path><path d="M83.0204 31.5938L84.6392 29.3501C85.6798 30.3281 86.7783 30.7884 88.0502 30.7884C88.5127 30.7884 88.8595 30.6733 89.1486 30.5007C89.4377 30.3281 89.5533 30.0404 89.5533 29.7528C89.5533 29.5802 89.4955 29.4076 89.3221 29.235C89.1486 29.1199 88.9174 28.9473 88.6283 28.8323C88.3392 28.7172 87.8767 28.5446 87.2986 28.372C86.9517 28.2569 86.6048 28.1419 86.3158 28.0268C86.0267 27.9118 85.7376 27.7392 85.4486 27.5666C85.1595 27.394 84.8704 27.2214 84.697 26.9912C84.4657 26.7611 84.2923 26.531 84.1188 26.3009C83.9454 26.0707 83.8297 25.7831 83.7141 25.438C83.5985 25.0928 83.5985 24.7476 83.5985 24.4025C83.5985 23.6545 83.7719 23.0218 84.1766 22.504C84.5814 21.9287 85.1016 21.526 85.7376 21.2383C86.4314 20.9507 87.1829 20.7781 87.9924 20.7781C88.8595 20.7781 89.669 20.8932 90.3627 21.1233C91.0565 21.3534 91.808 21.7561 92.5018 22.2738L90.883 24.69C90.4205 24.2298 89.9581 23.9421 89.4377 23.7121C88.9174 23.4819 88.4549 23.3669 87.9346 23.3669C87.6455 23.3669 87.3564 23.4244 87.1252 23.597C86.8939 23.7696 86.7783 23.9997 86.7783 24.2874C86.7783 24.5175 86.9518 24.7476 87.2408 24.9202C87.5299 25.0928 87.9924 25.323 88.6284 25.5531C90.0159 26.0709 90.8831 26.4735 91.3456 26.7612C92.1549 27.279 92.6175 27.9118 92.7909 28.7172C92.8487 28.9473 92.8487 29.235 92.8487 29.5226C92.8487 30.6731 92.444 31.5937 91.6347 32.284C90.8253 32.9743 89.6112 33.3195 88.108 33.3195C86.0267 33.3772 84.3501 32.8019 83.0204 31.5938Z" fill="white"></path><path d="M104.469 21.0084C104.99 21.181 105.452 21.4687 105.915 21.8713C106.319 22.2741 106.666 22.7918 106.84 23.4822C107.071 24.1726 107.186 24.9204 107.186 25.8408V33.2045L103.891 33.2046V26.6463C103.891 25.5532 103.718 24.8053 103.313 24.3451C102.908 23.8849 102.33 23.6548 101.521 23.6548C100.596 23.6548 99.9019 23.9424 99.3816 24.5177C98.8612 25.093 98.6299 25.8984 98.6299 26.9914V33.2045L95.3347 33.2046V14.7953H98.6301V22.5042H98.6879C99.2083 21.9289 99.7864 21.5262 100.48 21.2386C101.174 20.9509 101.925 20.8358 102.677 20.8358C103.313 20.7208 103.891 20.8358 104.469 21.0084Z" fill="white"></path><path d="M126.091 20.9509V33.2046H122.969V31.7089H122.912C122.044 32.8594 120.83 33.3772 119.212 33.3772C118.344 33.3772 117.593 33.2046 116.841 32.917C116.09 32.6293 115.512 32.169 114.991 31.6513C114.471 31.1335 114.066 30.4432 113.777 29.6378C113.488 28.8324 113.315 27.9694 113.315 27.049C113.315 26.1286 113.488 25.2656 113.777 24.5177C114.066 23.7699 114.471 23.0795 114.991 22.5042C115.512 21.9289 116.09 21.5262 116.841 21.181C117.535 20.8358 118.344 20.7208 119.154 20.7208C120.657 20.7208 121.871 21.2386 122.796 22.3316H122.854V20.9509H126.091ZM122.044 29.5227C122.623 28.8899 122.969 28.0845 122.969 27.1065C122.969 26.1286 122.68 25.3231 122.102 24.6328C121.524 24 120.773 23.6548 119.905 23.6548C118.98 23.6548 118.229 23.9425 117.651 24.5753C117.072 25.208 116.726 26.0135 116.726 27.049C116.726 28.027 117.015 28.8324 117.593 29.4652C118.171 30.098 118.922 30.3856 119.848 30.3856C120.715 30.4432 121.409 30.1556 122.044 29.5227Z" fill="white"></path><path d="M140.603 20.9509V33.2046H137.307V31.7089H137.249C136.787 32.2842 136.209 32.6869 135.573 32.9745C134.937 33.2622 134.301 33.4348 133.549 33.4348C132.856 33.4348 132.277 33.3197 131.699 33.1471C131.179 32.9745 130.716 32.6869 130.254 32.2842C129.849 31.8815 129.502 31.3638 129.329 30.7309C129.156 30.0981 128.982 29.2927 128.982 28.3723V20.9509H132.277V27.4517C132.277 28.5448 132.451 29.3502 132.798 29.7529C133.145 30.2131 133.723 30.4433 134.474 30.4433C135.226 30.4433 135.92 30.1556 136.44 29.5228C136.96 28.89 137.249 28.0271 137.249 26.8765V20.9509H140.603Z" fill="white"></path><path d="M145.112 32.3416C144.476 31.6513 144.187 30.6158 144.187 29.2926L144.187 23.6548H142.742V20.9509H144.187V16.9814L147.482 16.6362V21.0085H150.836V23.6548H147.425V28.8324C147.425 29.3502 147.482 29.7529 147.656 30.0405C147.829 30.2706 148.118 30.4432 148.465 30.4432C148.928 30.4432 149.448 30.3282 150.026 30.0405L150.893 32.6293C150.431 32.8594 149.968 33.0896 149.506 33.2046C149.043 33.3197 148.407 33.3772 147.656 33.3772C146.557 33.3772 145.69 33.032 145.112 32.3416Z" fill="white"></path><path d="M156.328 33.0896C155.634 32.8594 155.056 32.5718 154.536 32.2267C154.015 31.8239 153.553 31.4213 153.148 30.9035C152.743 30.3857 152.454 29.8105 152.281 29.1776C152.108 28.5448 151.992 27.8545 151.992 27.1065C151.992 26.1861 152.165 25.3807 152.454 24.5753C152.744 23.7699 153.206 23.1371 153.784 22.5617C154.362 21.9864 155.056 21.5838 155.866 21.2386C156.675 20.8934 157.6 20.7783 158.525 20.7783C159.45 20.7783 160.317 20.9509 161.126 21.2386C161.936 21.5262 162.63 21.9865 163.208 22.5042C163.786 23.0795 164.248 23.7123 164.538 24.5178C164.884 25.3231 165 26.1861 165 27.1065C165 28.3146 164.711 29.4077 164.191 30.3857C163.613 31.3637 162.861 32.1116 161.878 32.6294C160.895 33.1472 159.739 33.4348 158.525 33.4348C157.715 33.3772 156.964 33.2622 156.328 33.0896ZM160.78 29.4652C161.416 28.8323 161.705 28.027 161.705 27.049C161.705 26.071 161.415 25.2656 160.78 24.6328C160.201 24 159.392 23.7124 158.467 23.7124C157.542 23.7124 156.733 24.0576 156.155 24.6903C155.576 25.3232 155.287 26.1286 155.287 27.1065C155.287 28.0845 155.577 28.8324 156.212 29.5227C156.791 30.1556 157.6 30.5007 158.525 30.5007C159.392 30.4432 160.144 30.1556 160.78 29.4652Z" fill="white"></path></svg> 